# xmcd CD database file
#
# Track frame offsets:
#	150
#	11474
#	24492
#	44073
#	65649
#	82856
#	105085
#	126362
#	138854
#	157264
#
# Disc length: 2302 seconds
#
# Revision: 0
# Processed by: cddbd v1.5.1PL0 Copyright (c) Steve Scherf et al.
# Submitted via: CDex 1.51
#
DISCID=7c08fc0a
DTITLE=ミュー - White Crow 1.5
DYEAR=2004
DGENRE=Game
TTITLE0=夜想 (Fusion Mix)
TTITLE1=絵空事 (twisted air)
TTITLE2=此処 (My Home Edition)
TTITLE3=理 (Downpour of Acid Rain v1.1)
TTITLE4=ふたり (cross a hands)
TTITLE5=此処 (Run away from Home Feeling)
TTITLE6=神薙 (in neuralgia)
TTITLE7=夜想 (AM 1:30 - AM 830KHz)
TTITLE8=月童 (One feather was flying on a city. v1.1)
TTITLE9=夢語り (dream. early rising)
EXTD=YEAR: 2004
EXTT0=
EXTT1=
EXTT2=
EXTT3=
EXTT4=
EXTT5=
EXTT6=
EXTT7=
EXTT8=
EXTT9=
PLAYORDER=
